<?xml version="1.0" standalone="no"?>
<!DOCTYPE svg PUBLIC "-//W3C//DTD SVG 20010904//EN"
 "http://www.w3.org/TR/2001/REC-SVG-20010904/DTD/svg10.dtd">
<svg version="1.0" xmlns="http://www.w3.org/2000/svg"
 width="2048.000000pt" height="2048.000000pt" viewBox="0 0 2048.000000 2048.000000"
 preserveAspectRatio="xMidYMid meet">

<g transform="translate(0.000000,2048.000000) scale(0.100000,-0.100000)"
fill="#000000" stroke="none">
<path d="M2985 18274 c-283 -30 -493 -89 -718 -201 -277 -138 -440 -268 -691
-553 -122 -139 -169 -203 -274 -380 -297 -502 -434 -966 -449 -1520 -10 -375
32 -631 159 -964 74 -196 231 -485 367 -677 130 -182 356 -431 531 -584 36
-31 124 -108 197 -171 72 -62 135 -118 138 -124 13 -21 26 -7 96 96 80 120
274 378 423 564 389 486 1043 1129 1494 1469 18 13 76 59 130 101 53 43 151
117 217 165 154 112 650 442 677 450 12 5 18 13 15 23 -3 10 -32 114 -65 233
-165 586 -250 811 -430 1129 -83 146 -318 420 -462 540 -237 196 -568 336
-910 385 -106 15 -372 27 -445 19z"/>
<path d="M16625 18273 c-425 -37 -835 -209 -1099 -463 -137 -132 -270 -283
-337 -383 -76 -115 -234 -433 -295 -592 -47 -124 -107 -304 -217 -652 -59
-184 -63 -204 -48 -217 9 -7 95 -65 192 -129 180 -117 415 -281 594 -416 228
-171 521 -404 565 -451 3 -3 34 -30 70 -60 360 -303 890 -845 1130 -1155 30
-38 82 -104 116 -145 66 -82 242 -315 318 -423 26 -37 52 -67 57 -65 15 5 251
204 374 315 128 116 361 377 454 508 180 254 299 469 374 675 137 378 188 733
166 1145 -11 202 -25 291 -84 525 -92 370 -210 635 -437 985 -324 500 -849
869 -1373 965 -185 34 -375 46 -520 33z"/>
<path d="M6535 11200 c-381 -44 -666 -153 -1128 -432 -695 -417 -1379 -967
-1882 -1513 -327 -355 -475 -649 -541 -1070 -28 -184 -11 -416 46 -600 104
-342 316 -677 603 -952 204 -195 497 -375 737 -451 190 -60 238 -67 455 -67
186 1 208 3 315 29 283 70 497 167 755 339 471 316 1029 931 1535 1692 391
588 587 1001 667 1403 24 124 24 397 0 512 -107 501 -448 881 -937 1044 -58
19 -145 42 -195 51 -106 19 -331 27 -430 15z"/>
<path d="M12981 11189 c-345 -44 -714 -248 -930 -513 -200 -245 -311 -542
-311 -833 0 -318 98 -628 348 -1098 198 -374 460 -769 761 -1145 377 -473 795
-879 1146 -1114 375 -252 731 -376 1076 -376 151 0 258 17 419 65 318 95 539
232 806 499 213 214 329 370 449 606 228 449 250 884 69 1350 -143 367 -408
693 -909 1116 -569 481 -1417 1055 -1875 1267 -185 86 -420 155 -595 176 -103
12 -359 12 -454 0z"/>
<path d="M9335 5419 c-538 -40 -967 -127 -1207 -245 -113 -55 -161 -89 -226
-158 -77 -82 -95 -129 -90 -235 8 -149 78 -276 246 -447 212 -216 558 -442
1032 -672 118 -57 321 -156 450 -219 129 -63 259 -124 289 -134 65 -23 163
-25 224 -4 64 21 829 399 977 482 221 123 273 154 395 236 221 147 359 265
470 402 133 163 175 258 175 388 0 99 -10 137 -51 197 -134 197 -560 319
-1394 401 -140 14 -1131 20 -1290 8z"/>
</g>
</svg>
